<svg xmlns="http://www.w3.org/2000/svg" xmlns:xlink="http://www.w3.org/1999/xlink" width="1366" zoomAndPan="magnify" viewBox="0 0 1024.5 576" height="768" preserveAspectRatio="xMidYMid meet" version="1.0"><defs><g/><clipPath id="76e7f11559"><path d="M 280 412 L 407 412 L 407 547.742188 L 280 547.742188 Z M 280 412 " clip-rule="nonzero"/></clipPath><clipPath id="069fcba085"><path d="M 526 9.242188 L 656 9.242188 L 656 180 L 526 180 Z M 526 9.242188 " clip-rule="nonzero"/></clipPath><clipPath id="f3561ce0ae"><path d="M 592 170 L 774.578125 170 L 774.578125 250 L 592 250 Z M 592 170 " clip-rule="nonzero"/></clipPath></defs><path fill="#e384ff" d="M 442.984375 153.003906 C 443.449219 152.800781 443.9375 152.660156 444.445312 152.585938 C 444.957031 152.511719 445.480469 152.503906 446.015625 152.5625 C 446.550781 152.621094 447.089844 152.742188 447.632812 152.929688 C 448.171875 153.117188 448.707031 153.367188 449.234375 153.675781 C 449.761719 153.988281 450.269531 154.351562 450.761719 154.773438 C 451.25 155.195312 451.714844 155.660156 452.152344 156.175781 C 452.589844 156.691406 452.992188 157.246094 453.355469 157.835938 C 453.722656 158.425781 454.046875 159.039062 454.324219 159.683594 L 550.140625 378.867188 C 550.421875 379.507812 550.65625 380.164062 550.839844 380.832031 C 551.023438 381.5 551.15625 382.171875 551.238281 382.839844 C 551.320312 383.511719 551.351562 384.171875 551.324219 384.816406 C 551.300781 385.464844 551.222656 386.085938 551.09375 386.683594 C 550.964844 387.28125 550.785156 387.84375 550.554688 388.367188 C 550.324219 388.894531 550.046875 389.371094 549.726562 389.804688 C 549.40625 390.238281 549.042969 390.617188 548.644531 390.941406 C 548.242188 391.265625 547.8125 391.53125 547.347656 391.734375 C 546.882812 391.9375 546.398438 392.074219 545.886719 392.148438 C 545.375 392.222656 544.855469 392.230469 544.316406 392.171875 C 543.78125 392.117188 543.242188 391.992188 542.699219 391.804688 C 542.160156 391.617188 541.625 391.371094 541.097656 391.058594 C 540.574219 390.75 540.0625 390.382812 539.574219 389.960938 C 539.082031 389.542969 538.617188 389.074219 538.179688 388.558594 C 537.742188 388.042969 537.34375 387.492188 536.976562 386.902344 C 536.609375 386.3125 536.289062 385.695312 536.007812 385.054688 L 440.191406 165.871094 C 439.910156 165.230469 439.675781 164.574219 439.492188 163.90625 C 439.308594 163.234375 439.175781 162.566406 439.09375 161.894531 C 439.011719 161.222656 438.984375 160.566406 439.007812 159.917969 C 439.03125 159.273438 439.109375 158.652344 439.238281 158.054688 C 439.371094 157.457031 439.550781 156.894531 439.777344 156.367188 C 440.007812 155.84375 440.285156 155.363281 440.605469 154.929688 C 440.925781 154.496094 441.289062 154.117188 441.6875 153.792969 C 442.089844 153.46875 442.519531 153.207031 442.984375 153.003906 Z M 442.984375 153.003906 " fill-opacity="1" fill-rule="evenodd"/><path fill="#865dff" d="M 535.414062 383.894531 L 441.503906 168.257812 C 409.90625 219.203125 373.042969 267.953125 312.921875 307.480469 L 355.492188 404.097656 C 412.101562 380.382812 470.464844 364.132812 535.414062 383.894531 Z M 535.414062 383.894531 " fill-opacity="1" fill-rule="evenodd"/><path fill="#e384ff" d="M 312.921875 307.480469 L 226.035156 345.6875 C 222.085938 347.445312 220.328125 351.835938 222.085938 355.789062 L 258.070312 438.355469 C 259.824219 442.304688 264.214844 444.0625 268.164062 442.304688 L 355.492188 404.539062 Z M 312.921875 307.480469 " fill-opacity="1" fill-rule="evenodd"/><g clip-path="url(#76e7f11559)"><path fill="#191825" d="M 336.621094 412.882812 L 280.449219 437.035156 L 360.757812 547.710938 L 402.445312 527.066406 C 409.027344 522.675781 408.589844 515.210938 394.984375 517.40625 Z M 336.621094 412.882812 " fill-opacity="1" fill-rule="evenodd"/></g><path fill="#ffa3fd" d="M 336.621094 412.882812 L 348.46875 407.171875 L 364.707031 438.355469 C 367.339844 443.183594 364.269531 446.699219 357.246094 449.773438 Z M 336.621094 412.882812 " fill-opacity="1" fill-rule="evenodd"/><path fill="#865dff" d="M 232.617188 380.382812 L 231.738281 380.820312 C 227.789062 382.578125 226.035156 387.410156 227.789062 391.363281 L 236.566406 412.003906 C 238.320312 416.394531 243.148438 418.152344 247.097656 416.394531 L 247.976562 415.957031 Z M 232.617188 380.382812 " fill-opacity="1" fill-rule="evenodd"/><path fill="#4827c3" d="M 228.226562 392.679688 L 229.984375 391.800781 C 230.863281 391.363281 231.738281 391.800781 232.179688 392.679688 C 232.617188 393.117188 232.179688 393.996094 231.300781 394.4375 L 229.105469 395.316406 Z M 228.226562 392.679688 " fill-opacity="1" fill-rule="evenodd"/><path fill="#4827c3" d="M 230.863281 399.265625 L 233.054688 398.390625 C 233.933594 397.949219 234.8125 398.390625 234.8125 399.265625 C 235.25 399.707031 234.8125 400.585938 234.371094 401.023438 L 232.179688 401.902344 Z M 230.863281 399.265625 " fill-opacity="1" fill-rule="evenodd"/><path fill="#4827c3" d="M 234.371094 406.734375 L 236.128906 405.855469 C 237.003906 405.414062 237.882812 405.855469 238.320312 406.734375 C 238.761719 407.171875 238.320312 408.050781 237.445312 408.488281 L 235.25 409.367188 Z M 234.371094 406.734375 " fill-opacity="1" fill-rule="evenodd"/><path fill="#865dff" d="M 499.429688 241.164062 C 497.234375 235.894531 491.96875 233.257812 486.703125 234.136719 L 512.59375 293.425781 C 516.984375 289.910156 518.300781 284.203125 516.105469 278.933594 Z M 499.429688 241.164062 " fill-opacity="1" fill-rule="evenodd"/><g clip-path="url(#069fcba085)"><path fill="#865dff" d="M 627.570312 70.761719 L 526.636719 179.679688 L 577.542969 97.550781 L 550.335938 105.019531 L 655.65625 9.277344 L 597.726562 80.863281 Z M 627.570312 70.761719 " fill-opacity="1" fill-rule="evenodd"/></g><path fill="#865dff" d="M 657.847656 356.226562 L 767.558594 356.226562 L 697.78125 342.613281 L 715.335938 331.632812 L 610.894531 340.855469 L 678.472656 345.25 Z M 657.847656 356.226562 " fill-opacity="1" fill-rule="evenodd"/><g clip-path="url(#f3561ce0ae)"><path fill="#865dff" d="M 653.898438 237.648438 L 774.578125 170.894531 L 689.007812 198.125 L 702.171875 175.726562 L 592.023438 249.066406 L 669.699219 212.617188 Z M 653.898438 237.648438 " fill-opacity="1" fill-rule="evenodd"/></g><g fill="#004aad" fill-opacity="1"><g transform="translate(434.110346, 482.635997)"><g><path d="M 13.515625 -22.234375 L 16.25 -22.234375 C 18.925781 -22.234375 20.898438 -22.675781 22.171875 -23.5625 C 23.453125 -24.457031 24.09375 -25.863281 24.09375 -27.78125 C 24.09375 -29.675781 23.441406 -31.023438 22.140625 -31.828125 C 20.835938 -32.628906 18.816406 -33.03125 16.078125 -33.03125 L 13.515625 -33.03125 Z M 13.515625 -15.34375 L 13.515625 0 L 5.03125 0 L 5.03125 -39.984375 L 16.6875 -39.984375 C 22.113281 -39.984375 26.128906 -38.992188 28.734375 -37.015625 C 31.347656 -35.035156 32.65625 -32.03125 32.65625 -28 C 32.65625 -25.644531 32.003906 -23.550781 30.703125 -21.71875 C 29.410156 -19.894531 27.582031 -18.460938 25.21875 -17.421875 C 31.226562 -8.429688 35.144531 -2.625 36.96875 0 L 27.5625 0 L 18.015625 -15.34375 Z M 13.515625 -15.34375 "/></g></g></g><g fill="#004aad" fill-opacity="1"><g transform="translate(471.073934, 482.635997)"><g><path d="M 21.953125 0 L 12.328125 -31.359375 L 12.09375 -31.359375 C 12.4375 -24.984375 12.609375 -20.726562 12.609375 -18.59375 L 12.609375 0 L 5.03125 0 L 5.03125 -39.984375 L 16.578125 -39.984375 L 26.03125 -9.40625 L 26.203125 -9.40625 L 36.234375 -39.984375 L 47.765625 -39.984375 L 47.765625 0 L 39.875 0 L 39.875 -18.921875 C 39.875 -19.816406 39.882812 -20.847656 39.90625 -22.015625 C 39.9375 -23.179688 40.0625 -26.28125 40.28125 -31.3125 L 40.03125 -31.3125 L 29.71875 0 Z M 21.953125 0 "/></g></g></g><g fill="#004aad" fill-opacity="1"><g transform="translate(523.867343, 482.635997)"><g/></g></g><g fill="#004aad" fill-opacity="1"><g transform="translate(538.412186, 482.635997)"><g><path d="M 28.625 -11.109375 C 28.625 -7.492188 27.328125 -4.644531 24.734375 -2.5625 C 22.140625 -0.488281 18.523438 0.546875 13.890625 0.546875 C 9.628906 0.546875 5.859375 -0.253906 2.578125 -1.859375 L 2.578125 -9.734375 C 5.273438 -8.535156 7.554688 -7.6875 9.421875 -7.1875 C 11.285156 -6.695312 12.992188 -6.453125 14.546875 -6.453125 C 16.410156 -6.453125 17.835938 -6.804688 18.828125 -7.515625 C 19.816406 -8.234375 20.3125 -9.289062 20.3125 -10.6875 C 20.3125 -11.476562 20.09375 -12.175781 19.65625 -12.78125 C 19.21875 -13.394531 18.578125 -13.984375 17.734375 -14.546875 C 16.890625 -15.109375 15.160156 -16.007812 12.546875 -17.25 C 10.109375 -18.40625 8.273438 -19.507812 7.046875 -20.5625 C 5.828125 -21.625 4.851562 -22.851562 4.125 -24.25 C 3.394531 -25.65625 3.03125 -27.296875 3.03125 -29.171875 C 3.03125 -32.710938 4.226562 -35.492188 6.625 -37.515625 C 9.03125 -39.535156 12.347656 -40.546875 16.578125 -40.546875 C 18.648438 -40.546875 20.628906 -40.300781 22.515625 -39.8125 C 24.398438 -39.320312 26.375 -38.628906 28.4375 -37.734375 L 25.703125 -31.140625 C 23.566406 -32.015625 21.800781 -32.625 20.40625 -32.96875 C 19.019531 -33.320312 17.648438 -33.5 16.296875 -33.5 C 14.691406 -33.5 13.460938 -33.125 12.609375 -32.375 C 11.753906 -31.625 11.328125 -30.648438 11.328125 -29.453125 C 11.328125 -28.703125 11.5 -28.046875 11.84375 -27.484375 C 12.1875 -26.929688 12.734375 -26.394531 13.484375 -25.875 C 14.242188 -25.363281 16.039062 -24.429688 18.875 -23.078125 C 22.601562 -21.296875 25.160156 -19.503906 26.546875 -17.703125 C 27.929688 -15.910156 28.625 -13.710938 28.625 -11.109375 Z M 28.625 -11.109375 "/></g></g></g><g fill="#004aad" fill-opacity="1"><g transform="translate(569.25163, 482.635997)"><g><path d="M 41.3125 -20.046875 C 41.3125 -13.429688 39.671875 -8.34375 36.390625 -4.78125 C 33.109375 -1.226562 28.40625 0.546875 22.28125 0.546875 C 16.15625 0.546875 11.453125 -1.226562 8.171875 -4.78125 C 4.890625 -8.34375 3.25 -13.445312 3.25 -20.09375 C 3.25 -26.75 4.894531 -31.832031 8.1875 -35.34375 C 11.476562 -38.851562 16.195312 -40.609375 22.34375 -40.609375 C 28.488281 -40.609375 33.1875 -38.835938 36.4375 -35.296875 C 39.6875 -31.765625 41.3125 -26.679688 41.3125 -20.046875 Z M 12.140625 -20.046875 C 12.140625 -15.578125 12.988281 -12.210938 14.6875 -9.953125 C 16.382812 -7.691406 18.914062 -6.5625 22.28125 -6.5625 C 29.050781 -6.5625 32.4375 -11.054688 32.4375 -20.046875 C 32.4375 -29.046875 29.070312 -33.546875 22.34375 -33.546875 C 18.96875 -33.546875 16.421875 -32.410156 14.703125 -30.140625 C 12.992188 -27.878906 12.140625 -24.515625 12.140625 -20.046875 Z M 12.140625 -20.046875 "/></g></g></g><g fill="#004aad" fill-opacity="1"><g transform="translate(613.81572, 482.635997)"><g><path d="M 13.375 0 L 5.03125 0 L 5.03125 -39.984375 L 27.953125 -39.984375 L 27.953125 -33.03125 L 13.375 -33.03125 L 13.375 -22.71875 L 26.9375 -22.71875 L 26.9375 -15.8125 L 13.375 -15.8125 Z M 13.375 0 "/></g></g></g><g fill="#004aad" fill-opacity="1"><g transform="translate(644.545792, 482.635997)"><g><path d="M 20.453125 0 L 11.984375 0 L 11.984375 -32.921875 L 1.125 -32.921875 L 1.125 -39.984375 L 31.3125 -39.984375 L 31.3125 -32.921875 L 20.453125 -32.921875 Z M 20.453125 0 "/></g></g></g></svg>